<svg xmlns="http://www.w3.org/2000/svg" viewBox="0 0 360 64" fill="none">
  <rect x="4" y="4" width="64" height="56" rx="12" fill="#0F4C81"/>
  <path d="M26 16h12v7l9 18a7 7 0 0 1-6.3 10H23.3A7 7 0 0 1 17 41l9-18v-7Z" fill="#ffffff"/>
  <path d="M24 39c2.6-1.2 4.7-.9 6.6-.4 2 .6 3.9 1.4 6.6.3 1.3-.5 2.2-1.2 2.8-1.8l3 6.1c-.7.7-1.8 1.5-3.3 2.1-4 1.6-6.9.4-9.2-.3-1.6-.5-2.8-.8-4.8.1-1.1.5-2 1.1-2.5 1.6l-3-6c.6-.6 1.7-1.3 3.2-1.7Z" fill="#34D399"/>
  <text x="74" y="30" font-family="system-ui, -apple-system, 'Segoe UI', sans-serif" font-size="17" font-weight="700" fill="#34D399">Primerock Sample Testing System</text>
  <text x="74" y="48" font-family="system-ui, -apple-system, 'Segoe UI', sans-serif" font-size="12" fill="#FFFFFF">LAB SYSTEM</text>
</svg>
